<svg width="24" height="24" viewBox="0 0 24 24" fill="none" xmlns="http://www.w3.org/2000/svg">
<path d="M11.5 4C11.7761 4 12 4.22386 12 4.5V16.25L16.9173 11.3327C17.1042 11.1458 17.4043 11.1366 17.6022 11.3118V11.3118C17.8179 11.5028 17.828 11.836 17.6243 12.0397L12.2071 17.4569C11.8166 17.8474 11.1834 17.8474 10.7929 17.4569L5.37565 12.0397C5.17198 11.836 5.1821 11.5028 5.39777 11.3118V11.3118C5.59567 11.1366 5.89575 11.1458 6.08265 11.3327L11 16.25V4.5C11 4.22386 11.2239 4 11.5 4V4ZM4 21.5C4 21.2239 4.22386 21 4.5 21H18.5C18.7761 21 19 21.2239 19 21.5V21.5C19 21.7761 18.7741 22 18.498 22C12.4336 22 10.5664 22 4.50203 22C4.22589 22 4 21.7761 4 21.5V21.5Z" fill="black"/>
</svg>
