<svg width="24" height="25" viewBox="0 0 24 25" fill="none" xmlns="http://www.w3.org/2000/svg">
<path d="M22.2538 11.2492V11.2503V22.5003C22.2538 23.3267 21.5802 24.0003 20.7538 24.0003H3.25378C2.42732 24.0003 1.75378 23.3267 1.75378 22.5003L1.75379 11.2503L1.75378 11.2492C1.75375 11.2168 1.76013 11.1847 1.77255 11.1547C1.78497 11.1247 1.80318 11.0975 1.82615 11.0746L1.82714 11.0736L11.8271 1.07361L11.8277 1.07301C11.8508 1.04987 11.8783 1.0315 11.9085 1.01898C11.9387 1.00645 11.9711 1 12.0038 1C12.0365 1 12.0689 1.00645 12.0991 1.01898C12.1293 1.0315 12.1567 1.04986 12.1798 1.07301L12.1804 1.07361L22.1804 11.0736L22.1814 11.0746C22.2044 11.0975 22.2226 11.1247 22.235 11.1547C22.2474 11.1847 22.2538 11.2168 22.2538 11.2492ZM8.50379 22.5003V23.5003H9.50379H14.5038H15.5038V22.5003V16.2503V15.2503H14.5038H9.50379H8.50379V16.2503V22.5003ZM2.54668 11.0606L2.25378 11.3535V11.7678V22.5003V23.5003H3.25378H7.00379H8.00379V22.5003V16.2503C8.00379 15.4238 8.67732 14.7503 9.50379 14.7503H14.5038C15.3303 14.7503 16.0038 15.4238 16.0038 16.2503V22.5003V23.5003H17.0038H20.755H21.7552L21.755 22.5001L21.7538 11.7676L21.7537 11.3535L21.4609 11.0606L12.7109 2.31065L12.0038 1.60354L11.2967 2.31065L2.54668 11.0606Z" stroke="#EEEEEF" stroke-width="2"/>
</svg>